<svg width="24" height="24" viewBox="0 0 24 24" fill="none" xmlns="http://www.w3.org/2000/svg">
<path d="M20.25 17V17.75H21H21.25V21.25H14.75V17.75H15H15.75V17V16C15.75 15.4033 15.9871 14.831 16.409 14.409C16.831 13.9871 17.4033 13.75 18 13.75C18.5967 13.75 19.169 13.9871 19.591 14.409C20.0129 14.831 20.25 15.4033 20.25 16V17ZM19 17.75H19.75V17V16C19.75 15.5359 19.5656 15.0908 19.2374 14.7626C18.9092 14.4344 18.4641 14.25 18 14.25C17.5359 14.25 17.0908 14.4344 16.7626 14.7626C16.4344 15.0908 16.25 15.5359 16.25 16V17V17.75H17H19ZM4.78887 21.25C4.96014 19.6028 5.69178 18.0552 6.87348 16.8735C8.05517 15.6918 9.60279 14.9601 11.25 14.7889V15.2918C9.73574 15.461 8.31485 16.1392 7.22703 17.227C6.13921 18.3148 5.46103 19.7357 5.29177 21.25H4.78887ZM12 12.25C9.09921 12.25 6.75 9.90079 6.75 7C6.75 4.09921 9.09921 1.75 12 1.75C14.9008 1.75 17.25 4.09921 17.25 7C17.25 9.90079 14.9008 12.25 12 12.25ZM12 11.75C14.6242 11.75 16.75 9.62421 16.75 7C16.75 4.37579 14.6242 2.25 12 2.25C9.37579 2.25 7.25 4.37579 7.25 7C7.25 9.62421 9.37579 11.75 12 11.75Z" stroke="black" stroke-width="1.5"/>
</svg>
