<svg width="24" height="20" viewBox="0 0 24 20" fill="none" xmlns="http://www.w3.org/2000/svg">
<g clip-path="url(#clip0_3227_13403)">
<path d="M8.40006 1.65H7.65006V2.4V3.11274C7.36071 3.01891 7.06021 2.94784 6.75006 2.90342V1.85963C6.75006 1.22529 7.24457 0.75 7.80006 0.75H22.2001C22.7556 0.75 23.2501 1.22529 23.2501 1.85963V13.7404C23.2501 14.3747 22.7556 14.85 22.2001 14.85H13.5769C13.4578 14.5348 13.3109 14.234 13.1393 13.95H14.4001H15.1501V13.2V11.55H18.4501V13.2V13.95H19.2001H21.6001H22.3501V13.2V2.4V1.65H21.6001H8.40006ZM8.85006 8.4C8.85006 9.97404 7.5741 11.25 6.00006 11.25C4.42602 11.25 3.15006 9.97404 3.15006 8.4C3.15006 6.82596 4.42602 5.55 6.00006 5.55C7.5741 5.55 8.85006 6.82596 8.85006 8.4Z" stroke="#1E1E1E" stroke-width="1.5"/>
</g>
<defs>
<clipPath id="clip0_3227_13403">
<rect width="24" height="19.2" fill="white"/>
</clipPath>
</defs>
</svg>
