<svg width="20" height="20" viewBox="0 0 20 20" fill="none" xmlns="http://www.w3.org/2000/svg">
<path d="M13.3346 10.6614V13.3347H10.668V10.6614H13.3346ZM13.3346 6.66406V9.32806H10.668V6.66406H13.3346ZM9.33464 6.66406H6.66797V9.32806H9.33464V6.66406ZM9.33464 10.6614H6.66797V13.3347H9.33464V10.6614Z" fill="#7B31B2"/>
<path fill-rule="evenodd" clip-rule="evenodd" d="M1.33203 2C1.33203 1.46957 1.54274 0.960859 1.91782 0.585786C2.29289 0.210714 2.8016 0 3.33203 0L14.2747 0L18.6654 4.39067V18C18.6654 18.5304 18.4547 19.0391 18.0796 19.4142C17.7045 19.7893 17.1958 20 16.6654 20H3.33203C2.8016 20 2.29289 19.7893 1.91782 19.4142C1.54274 19.0391 1.33203 18.5304 1.33203 18V2ZM14.6654 5.32933H5.33203V14.6667H14.6654V5.32933Z" fill="#7B31B2"/>
</svg>
