<svg width="24" height="24" viewBox="0 0 24 24" fill="none" xmlns="http://www.w3.org/2000/svg">
<path d="M16.4778 3.00406C16.6448 3.01906 16.7178 3.22306 16.5978 3.34206L8.2778 11.6621C8.18381 11.7561 8.11651 11.8734 8.0828 12.0021L7.0828 15.8321C7.04979 15.9586 7.05045 16.0916 7.08473 16.2179C7.119 16.3441 7.1857 16.4592 7.27819 16.5517C7.37068 16.6442 7.48576 16.7109 7.61199 16.7451C7.73822 16.7794 7.87123 16.7801 7.9978 16.7471L11.8268 15.7471C11.9555 15.713 12.0728 15.6454 12.1668 15.5511L20.6048 7.11306C20.6312 7.08596 20.6648 7.06699 20.7017 7.05839C20.7385 7.0498 20.777 7.05194 20.8127 7.06457C20.8484 7.07719 20.8797 7.09977 20.9029 7.12963C20.9261 7.15949 20.9403 7.19539 20.9438 7.23306C21.2948 10.5827 21.2747 13.9609 20.8838 17.3061C20.6608 19.2111 19.1298 20.7061 17.2318 20.9191C13.7554 21.3045 10.2471 21.3045 6.7708 20.9191C4.8718 20.7061 3.3408 19.2111 3.1178 17.3061C2.70553 13.7811 2.70553 10.22 3.1178 6.69506C3.3408 4.78906 4.8718 3.29406 6.7708 3.08206C9.99532 2.72472 13.248 2.69858 16.4778 3.00406Z" fill="#7B31B2"/>
<path d="M17.8231 4.23653C17.8463 4.21325 17.8739 4.19478 17.9043 4.18218C17.9347 4.16957 17.9672 4.16309 18.0001 4.16309C18.033 4.16309 18.0656 4.16957 18.0959 4.18218C18.1263 4.19478 18.1539 4.21325 18.1771 4.23653L19.5911 5.65153C19.6378 5.69839 19.6641 5.76186 19.6641 5.82803C19.6641 5.8942 19.6378 5.95767 19.5911 6.00453L11.2981 14.2995C11.2665 14.3308 11.2272 14.3533 11.1841 14.3645L9.27012 14.8645C9.22793 14.8755 9.1836 14.8753 9.14152 14.8639C9.09944 14.8525 9.06109 14.8302 9.03025 14.7994C8.99942 14.7686 8.97719 14.7302 8.96577 14.6881C8.95434 14.6461 8.95412 14.6017 8.96512 14.5595L9.46512 12.6455C9.47625 12.6024 9.49869 12.5631 9.53012 12.5315L17.8231 4.23653Z" fill="#7B31B2"/>
</svg>
