<svg width="20" height="20" viewBox="0 0 20 20" fill="none" xmlns="http://www.w3.org/2000/svg">
<g clip-path="url(#clip0_2048_2584)">
<path d="M15 14.9999H2V5.99988H4.595C4.595 5.99988 5.284 5.10388 6.765 3.99988H1C0.734784 3.99988 0.48043 4.10524 0.292893 4.29277C0.105357 4.48031 0 4.73466 0 4.99988L0 15.9999C0 16.2651 0.105357 16.5195 0.292893 16.707C0.48043 16.8945 0.734784 16.9999 1 16.9999H16C16.2652 16.9999 16.5196 16.8945 16.7071 16.707C16.8946 16.5195 17 16.2651 17 15.9999V12.2539L15 13.8989V14.9999ZM13.361 8.04988V11.6009L20 6.39988L13.361 1.40088V4.53188C5.3 4.53188 5.3 12.4999 5.3 12.4999C7.582 8.75188 8.986 8.04988 13.361 8.04988Z" fill="white"/>
</g>
<defs>
<clipPath id="clip0_2048_2584">
<rect width="20" height="20" fill="white"/>
</clipPath>
</defs>
</svg>
