<svg width="24" height="24" viewBox="0 0 24 24" fill="none" xmlns="http://www.w3.org/2000/svg">
<mask id="path-1-inside-1_2013_2302" fill="white">
<path fill-rule="evenodd" clip-rule="evenodd" d="M17.5 2.75C17.6989 2.75 17.8897 2.82902 18.0303 2.96967C18.171 3.11032 18.25 3.30109 18.25 3.5V5.75H20.5C20.6989 5.75 20.8897 5.82902 21.0303 5.96967C21.171 6.11032 21.25 6.30109 21.25 6.5C21.25 6.69891 21.171 6.88968 21.0303 7.03033C20.8897 7.17098 20.6989 7.25 20.5 7.25H18.25V9.5C18.25 9.69891 18.171 9.88968 18.0303 10.0303C17.8897 10.171 17.6989 10.25 17.5 10.25C17.3011 10.25 17.1103 10.171 16.9697 10.0303C16.829 9.88968 16.75 9.69891 16.75 9.5V7.25H14.5C14.3011 7.25 14.1103 7.17098 13.9697 7.03033C13.829 6.88968 13.75 6.69891 13.75 6.5C13.75 6.30109 13.829 6.11032 13.9697 5.96967C14.1103 5.82902 14.3011 5.75 14.5 5.75H16.75V3.5C16.75 3.30109 16.829 3.11032 16.9697 2.96967C17.1103 2.82902 17.3011 2.75 17.5 2.75Z"/>
</mask>
<path d="M17.5 2.75V4.25V2.75ZM18.25 5.75H16.75V7.25H18.25V5.75ZM20.5 5.75V4.25V5.75ZM20.5 7.25V8.75V7.25ZM18.25 7.25V5.75H16.75V7.25H18.25ZM16.75 7.25H18.25V5.75H16.75V7.25ZM14.5 7.25V8.75V7.25ZM14.5 5.75V4.25V5.75ZM16.75 5.75V7.25H18.25V5.75H16.75ZM17.5 4.25C17.3011 4.25 17.1103 4.17098 16.9697 4.03033L19.091 1.90901C18.669 1.48705 18.0967 1.25 17.5 1.25V4.25ZM16.9697 4.03033C16.829 3.88968 16.75 3.69891 16.75 3.5H19.75C19.75 2.90327 19.5129 2.33097 19.091 1.90901L16.9697 4.03033ZM16.75 3.5V5.75H19.75V3.5H16.75ZM18.25 7.25H20.5V4.25H18.25V7.25ZM20.5 7.25C20.3011 7.25 20.1103 7.17098 19.9697 7.03033L22.091 4.90901C21.669 4.48705 21.0967 4.25 20.5 4.25V7.25ZM19.9697 7.03033C19.829 6.88968 19.75 6.69891 19.75 6.5H22.75C22.75 5.90327 22.5129 5.33097 22.091 4.90901L19.9697 7.03033ZM19.75 6.5C19.75 6.30109 19.829 6.11032 19.9697 5.96967L22.091 8.09099C22.5129 7.66903 22.75 7.09673 22.75 6.5H19.75ZM19.9697 5.96967C20.1103 5.82902 20.3011 5.75 20.5 5.75V8.75C21.0967 8.75 21.669 8.51295 22.091 8.09099L19.9697 5.96967ZM20.5 5.75H18.25V8.75H20.5V5.75ZM16.75 7.25V9.5H19.75V7.25H16.75ZM16.75 9.5C16.75 9.30109 16.829 9.11032 16.9697 8.96967L19.091 11.091C19.5129 10.669 19.75 10.0967 19.75 9.5H16.75ZM16.9697 8.96967C17.1103 8.82902 17.3011 8.75 17.5 8.75V11.75C18.0967 11.75 18.669 11.5129 19.091 11.091L16.9697 8.96967ZM17.5 8.75C17.6989 8.75 17.8897 8.82902 18.0303 8.96967L15.909 11.091C16.331 11.5129 16.9033 11.75 17.5 11.75V8.75ZM18.0303 8.96967C18.171 9.11032 18.25 9.30109 18.25 9.5H15.25C15.25 10.0967 15.4871 10.669 15.909 11.091L18.0303 8.96967ZM18.25 9.5V7.25H15.25V9.5H18.25ZM16.75 5.75H14.5V8.75H16.75V5.75ZM14.5 5.75C14.6989 5.75 14.8897 5.82902 15.0303 5.96967L12.909 8.09099C13.331 8.51295 13.9033 8.75 14.5 8.75V5.75ZM15.0303 5.96967C15.171 6.11032 15.25 6.30109 15.25 6.5H12.25C12.25 7.09674 12.4871 7.66903 12.909 8.09099L15.0303 5.96967ZM15.25 6.5C15.25 6.69891 15.171 6.88968 15.0303 7.03033L12.909 4.90901C12.4871 5.33097 12.25 5.90326 12.25 6.5H15.25ZM15.0303 7.03033C14.8897 7.17098 14.6989 7.25 14.5 7.25V4.25C13.9033 4.25 13.331 4.48705 12.909 4.90901L15.0303 7.03033ZM14.5 7.25H16.75V4.25H14.5V7.25ZM18.25 5.75V3.5H15.25V5.75H18.25ZM18.25 3.5C18.25 3.69891 18.171 3.88968 18.0303 4.03033L15.909 1.90901C15.4871 2.33097 15.25 2.90327 15.25 3.5H18.25ZM18.0303 4.03033C17.8897 4.17098 17.6989 4.25 17.5 4.25V1.25C16.9033 1.25 16.331 1.48705 15.909 1.90901L18.0303 4.03033Z" fill="black" mask="url(#path-1-inside-1_2013_2302)"/>
<path d="M2.75 6.5C2.75 5.4183 2.75159 4.68234 2.82569 4.13118C2.89689 3.60155 3.02243 3.35623 3.18933 3.18933C3.35623 3.02243 3.60155 2.89689 4.13118 2.82569C4.68234 2.75159 5.4183 2.75 6.5 2.75C7.5817 2.75 8.31766 2.75159 8.86882 2.82569C9.39845 2.89689 9.64377 3.02243 9.81067 3.18933L10.341 2.659L9.81067 3.18933C9.97757 3.35623 10.1031 3.60155 10.1743 4.13118C10.2484 4.68234 10.25 5.4183 10.25 6.5C10.25 7.5817 10.2484 8.31766 10.1743 8.86882C10.1031 9.39845 9.97757 9.64377 9.81067 9.81067C9.64377 9.97757 9.39845 10.1031 8.86882 10.1743C8.31766 10.2484 7.5817 10.25 6.5 10.25C5.4183 10.25 4.68234 10.2484 4.13118 10.1743C3.60155 10.1031 3.35623 9.97757 3.18933 9.81067L2.659 10.341L3.18933 9.81067C3.02243 9.64377 2.89689 9.39845 2.82569 8.86882C2.75159 8.31766 2.75 7.5817 2.75 6.5ZM13.75 17.5C13.75 16.4183 13.7516 15.6823 13.8257 15.1312C13.8969 14.6015 14.0224 14.3562 14.1893 14.1893C14.3562 14.0224 14.6015 13.8969 15.1312 13.8257C15.6823 13.7516 16.4183 13.75 17.5 13.75C18.5817 13.75 19.3177 13.7516 19.8688 13.8257C20.3985 13.8969 20.6438 14.0224 20.8107 14.1893C20.9776 14.3562 21.1031 14.6015 21.1743 15.1312C21.2484 15.6823 21.25 16.4183 21.25 17.5C21.25 18.5817 21.2484 19.3177 21.1743 19.8688C21.1031 20.3985 20.9776 20.6438 20.8107 20.8107C20.6438 20.9776 20.3985 21.1031 19.8688 21.1743C19.3177 21.2484 18.5817 21.25 17.5 21.25C16.4183 21.25 15.6823 21.2484 15.1312 21.1743C14.6015 21.1031 14.3562 20.9776 14.1893 20.8107C14.0224 20.6438 13.8969 20.3985 13.8257 19.8688C13.7516 19.3177 13.75 18.5817 13.75 17.5ZM2.75 17.5C2.75 16.4183 2.75159 15.6823 2.82569 15.1312C2.89689 14.6015 3.02243 14.3562 3.18933 14.1893C3.35623 14.0224 3.60155 13.8969 4.13118 13.8257C4.68234 13.7516 5.4183 13.75 6.5 13.75C7.5817 13.75 8.31766 13.7516 8.86882 13.8257C9.39845 13.8969 9.64377 14.0224 9.81067 14.1893C9.97757 14.3562 10.1031 14.6015 10.1743 15.1312C10.2484 15.6823 10.25 16.4183 10.25 17.5C10.25 18.5817 10.2484 19.3177 10.1743 19.8688C10.1031 20.3985 9.97757 20.6438 9.81067 20.8107C9.64377 20.9776 9.39845 21.1031 8.86882 21.1743C8.31766 21.2484 7.5817 21.25 6.5 21.25C5.4183 21.25 4.68234 21.2484 4.13118 21.1743C3.60155 21.1031 3.35623 20.9776 3.18933 20.8107C3.02243 20.6438 2.89689 20.3985 2.82569 19.8688C2.75159 19.3177 2.75 18.5817 2.75 17.5Z" stroke="black" stroke-width="1.5"/>
</svg>
