<svg width="32" height="32" viewBox="0 0 32 32" fill="none" xmlns="http://www.w3.org/2000/svg">
<g id="ri:medal-fill">
<path id="Vector" d="M16.0026 9.33206C18.8316 9.33206 21.5447 10.4559 23.5451 12.4563C25.5455 14.4566 26.6693 17.1698 26.6693 19.9987C26.6693 22.8277 25.5455 25.5408 23.5451 27.5412C21.5447 29.5416 18.8316 30.6654 16.0026 30.6654C13.1736 30.6654 10.4605 29.5416 8.46013 27.5412C6.45974 25.5408 5.33594 22.8277 5.33594 19.9987C5.33594 17.1698 6.45974 14.4566 8.46013 12.4563C10.4605 10.4559 13.1736 9.33206 16.0026 9.33206ZM16.0026 13.9987L14.2399 17.5721L10.2959 18.1454L13.1493 20.9254L12.4759 24.8534L16.0026 22.9987L19.5293 24.8521L18.8559 20.9254L21.7093 18.1441L17.7653 17.5707L16.0026 13.9987ZM17.3359 2.66406L24.0026 2.6654V6.6654L22.1853 8.18273C20.6771 7.39197 19.0306 6.89942 17.3359 6.73206V2.66406ZM14.6693 2.66406V6.73073C12.9751 6.89826 11.329 7.3908 9.82127 8.1814L8.0026 6.6654V2.6654L14.6693 2.66406Z" fill="url(#paint0_linear_4032_22142)"/>
</g>
<defs>
<linearGradient id="paint0_linear_4032_22142" x1="9.00293" y1="9.49805" x2="35.5029" y2="43.998" gradientUnits="userSpaceOnUse">
<stop stop-color="#FFC000"/>
<stop offset="1" stop-color="#B88C00"/>
</linearGradient>
</defs>
</svg>
