<svg width="24" height="24" viewBox="0 0 24 24" fill="none" xmlns="http://www.w3.org/2000/svg">
<path d="M21.75 7.5H2.25V7.125C2.25 6.42881 2.52656 5.76113 3.01884 5.26884C3.51113 4.77656 4.17881 4.5 4.875 4.5H19.125C19.8212 4.5 20.4889 4.77656 20.9812 5.26884C21.4734 5.76113 21.75 6.42881 21.75 7.125V7.5ZM2.25 16.875V10.5H21.75V16.875C21.75 17.5712 21.4734 18.2389 20.9812 18.7312C20.4889 19.2234 19.8212 19.5 19.125 19.5H4.875C4.17881 19.5 3.51113 19.2234 3.01884 18.7312C2.52656 18.2389 2.25 17.5712 2.25 16.875ZM15.75 13.5C15.3522 13.5 14.9706 13.658 14.6893 13.9393C14.408 14.2206 14.25 14.6022 14.25 15C14.25 15.3978 14.408 15.7794 14.6893 16.0607C14.9706 16.342 15.3522 16.5 15.75 16.5H18C18.3978 16.5 18.7794 16.342 19.0607 16.0607C19.342 15.7794 19.5 15.3978 19.5 15C19.5 14.6022 19.342 14.2206 19.0607 13.9393C18.7794 13.658 18.3978 13.5 18 13.5H15.75Z" stroke="black" stroke-width="1.5"/>
</svg>
