<svg width="47" height="47" viewBox="0 0 47 47" fill="none" xmlns="http://www.w3.org/2000/svg">
<path d="M23.0196 3.9375C19.2255 3.9375 15.5165 5.0626 12.3617 7.17053C9.207 9.27846 6.74818 12.2745 5.29622 15.7799C3.84425 19.2853 3.46435 23.1425 4.20456 26.8637C4.94476 30.585 6.77183 34.0032 9.45471 36.6861C12.1376 39.369 15.5558 41.196 19.2771 41.9362C22.9983 42.6765 26.8555 42.2966 30.3609 40.8446C33.8663 39.3926 36.8623 36.9338 38.9703 33.7791C41.0782 30.6243 42.2033 26.9153 42.2033 23.1212C42.2033 20.6019 41.7071 18.1074 40.743 15.7799C39.779 13.4524 38.3659 11.3376 36.5845 9.55627C34.8032 7.7749 32.6884 6.36184 30.3609 5.39777C28.0334 4.4337 25.5389 3.9375 23.0196 3.9375ZM19.1829 31.7538V14.4885L30.6931 23.1212L19.1829 31.7538Z" fill="#AEAEAE"/>
</svg>
