<svg width="24" height="24" viewBox="0 0 24 24" fill="none" xmlns="http://www.w3.org/2000/svg">
<path d="M15.55 13.9491C15.5498 13.5275 15.3884 13.1563 15.09 12.8589C14.7923 12.5621 14.4219 12.401 14.0012 12.4H14C13.578 12.4 13.2065 12.5614 12.9084 12.8594C12.6104 13.1575 12.4491 13.5289 12.45 13.9509M15.55 13.9491C15.5509 14.3711 15.3896 14.7425 15.0916 15.0406C14.7937 15.3384 14.4225 15.4998 14.0009 15.5M15.55 13.9491C15.55 13.9494 15.55 13.9497 15.55 13.95H15.05L15.55 13.9488C15.55 13.9489 15.55 13.949 15.55 13.9491ZM14.0009 15.5C13.5789 15.5009 13.2075 15.3396 12.9094 15.0416C12.6116 14.7437 12.4502 14.3725 12.45 13.9509M14.0009 15.5C14.001 15.5 14.0011 15.5 14.0012 15.5L14 15V15.5C14.0003 15.5 14.0006 15.5 14.0009 15.5ZM12.45 13.9509C12.45 13.9506 12.45 13.9503 12.45 13.95H12.95L12.45 13.9512C12.45 13.9511 12.45 13.951 12.45 13.9509ZM12.75 11.7996L12.7496 12.3H13.25H14.75H15.25V11.8C15.25 11.3322 15.3012 11.0655 15.357 10.9398C15.4171 10.8045 15.5928 10.5636 15.9532 10.2039L15.9536 10.2036C16.4604 9.69674 16.837 9.25065 17.0397 8.87596C17.2529 8.48207 17.35 8.03454 17.35 7.55C17.35 6.66806 17.0343 5.91764 16.3972 5.34201C15.7624 4.76846 14.9474 4.50075 14.0004 4.5H14C13.2165 4.5 12.5129 4.72213 11.9111 5.17569C11.3155 5.6245 10.9023 6.22167 10.6731 6.94989L10.5348 7.38926L10.9614 7.56305L12.3114 8.11305L12.7939 8.30966L12.9704 7.81936C13.0994 7.46107 13.2596 7.23617 13.4269 7.10116C13.5963 6.96451 13.7808 6.89956 13.999 6.9H14C14.301 6.9 14.4989 6.98198 14.6402 7.1094C14.7701 7.22644 14.85 7.38748 14.85 7.65C14.85 7.78198 14.8139 7.91035 14.7287 8.04378C14.6292 8.1995 14.4331 8.42649 14.1127 8.73078C13.5682 9.20992 13.1558 9.64893 12.9827 10.0304C12.8892 10.2364 12.8347 10.4944 12.8011 10.774C12.7666 11.0609 12.7503 11.4042 12.75 11.7996ZM6.5 16.0006V16V4C6.5 3.58379 6.64249 3.23962 6.94156 2.94056C7.24061 2.6415 7.58424 2.4995 7.99939 2.5H8H20C20.4162 2.5 20.7604 2.64249 21.0594 2.94156C21.3585 3.24061 21.5005 3.58424 21.5 3.99939V4V16C21.5 16.4162 21.3575 16.7604 21.0584 17.0594C20.7594 17.3585 20.4158 17.5005 20.0006 17.5H20H8C7.58379 17.5 7.23962 17.3575 6.94056 17.0584C6.6415 16.7594 6.4995 16.4158 6.5 16.0006ZM2.5 20.0006V20V6.5H3.5V20V20.5H4H17.5V21.5H4C3.58379 21.5 3.23962 21.3575 2.94056 21.0584C2.6415 20.7594 2.4995 20.4158 2.5 20.0006Z" stroke="black"/>
</svg>
