<svg width="24" height="24" viewBox="0 0 24 24" fill="none" xmlns="http://www.w3.org/2000/svg">
<path d="M15.3885 15.3899C15.9735 14.8029 16.0525 13.9329 15.5645 13.4439C15.0765 12.9559 14.2055 13.0349 13.6195 13.6209C13.0345 14.2069 12.1635 14.2859 11.6755 13.7979C11.1875 13.3099 11.2665 12.4389 11.8525 11.8539M11.8525 11.8539L11.4985 11.4999M11.8525 11.8539C12.1835 11.5219 12.6055 11.3539 12.9985 11.3569M15.7415 15.7429L15.3875 15.3889C14.9875 15.7899 14.4525 15.9539 13.9985 15.8599M8.60547 10.8789C9.00103 10.8789 9.38771 10.7616 9.71661 10.5418C10.0455 10.3221 10.3019 10.0097 10.4532 9.64427C10.6046 9.27882 10.6442 8.87669 10.567 8.48873C10.4899 8.10076 10.2994 7.7444 10.0197 7.46469C9.73998 7.18499 9.38361 6.99451 8.99565 6.91734C8.60769 6.84017 8.20555 6.87977 7.8401 7.03115C7.47465 7.18252 7.16229 7.43887 6.94253 7.76777C6.72277 8.09666 6.60547 8.48334 6.60547 8.87891" stroke="#7B31B2" stroke-width="1.5" stroke-linecap="round"/>
<path d="M16.1372 4.72787C14.5912 3.18287 13.8192 2.40987 12.8162 2.12287C11.8132 1.83487 10.7482 2.08087 8.61925 2.57287L7.39125 2.85587C5.59925 3.26887 4.70325 3.47587 4.08925 4.08887C3.47625 4.70287 3.26925 5.59887 2.85625 7.39087L2.57225 8.61887C2.08125 10.7489 1.83525 11.8129 2.12225 12.8159C2.41025 13.8189 3.18325 14.5909 4.72825 16.1359L6.55825 17.9659C9.24825 20.6569 10.5922 21.9999 12.2622 21.9999C13.9332 21.9999 15.2772 20.6549 17.9662 17.9659C20.6572 15.2769 22.0002 13.9329 22.0002 12.2619C22.0002 10.9199 21.1322 9.78787 19.3962 7.99987" stroke="#7B31B2" stroke-width="1.5" stroke-linecap="round"/>
</svg>
