<svg width="75" height="75" viewBox="0 0 75 75" fill="none" xmlns="http://www.w3.org/2000/svg">
<g clip-path="url(#clip0_2331_7310)">
<path d="M20 37.5L35 50L55 25M37.5 72.5C32.9037 72.5 28.3525 71.5947 24.1061 69.8358C19.8597 68.0769 16.0013 65.4988 12.7513 62.2487C9.50121 58.9987 6.92313 55.1403 5.16422 50.8939C3.4053 46.6475 2.5 42.0963 2.5 37.5C2.5 32.9037 3.4053 28.3525 5.16422 24.1061C6.92313 19.8597 9.50121 16.0013 12.7513 12.7513C16.0013 9.50121 19.8597 6.92313 24.1061 5.16422C28.3525 3.4053 32.9037 2.5 37.5 2.5C46.7826 2.5 55.685 6.18749 62.2487 12.7513C68.8125 19.315 72.5 28.2174 72.5 37.5C72.5 46.7826 68.8125 55.685 62.2487 62.2487C55.685 68.8125 46.7826 72.5 37.5 72.5Z" stroke="#7B31B2" stroke-width="4" stroke-linecap="round"/>
</g>
<defs>
<clipPath id="clip0_2331_7310">
<rect width="75" height="75" fill="white"/>
</clipPath>
</defs>
</svg>
