<svg width="24" height="24" viewBox="0 0 24 24" fill="none" xmlns="http://www.w3.org/2000/svg">
<path d="M15.25 6C15.25 7.79493 13.7949 9.25 12 9.25C10.2051 9.25 8.75 7.79493 8.75 6C8.75 4.20507 10.2051 2.75 12 2.75C13.7949 2.75 15.25 4.20507 15.25 6Z" stroke="black" stroke-width="1.5"/>
<path d="M19.25 17.5C19.25 18.8076 19.2097 19.5439 18.5264 20.1003C18.1559 20.4021 17.5365 20.6966 16.4762 20.9112C15.4193 21.1252 13.9742 21.25 12 21.25C10.0258 21.25 8.58075 21.1252 7.5238 20.9112C6.46354 20.6966 5.84414 20.4021 5.4736 20.1003C4.79031 19.5439 4.75 18.8076 4.75 17.5C4.75 16.6488 5.3714 15.7253 6.71095 14.9718C8.02696 14.2315 9.89544 13.75 12 13.75C14.1046 13.75 15.973 14.2315 17.289 14.9718C18.6286 15.7253 19.25 16.6488 19.25 17.5Z" stroke="black" stroke-width="1.5"/>
</svg>
