<svg width="24" height="24" viewBox="0 0 24 24" fill="none" xmlns="http://www.w3.org/2000/svg">
<path d="M3.5 20V20.5H4H15.5V21.5H4C3.60218 21.5 3.22064 21.342 2.93934 21.0607C2.65804 20.7794 2.5 20.3978 2.5 20V8.5H3.5V20Z" stroke="black"/>
<path d="M10.375 14V15.077L11.3101 14.5427L18.3101 10.5427L19.2597 10L18.3101 9.45735L11.3101 5.45735L10.375 4.92301V6V14ZM8 2.625H20C20.3647 2.625 20.7144 2.76987 20.9723 3.02773C21.2301 3.28559 21.375 3.63533 21.375 4V16C21.375 16.3647 21.2301 16.7144 20.9723 16.9723C20.7144 17.2301 20.3647 17.375 20 17.375H8C7.63533 17.375 7.28559 17.2301 7.02773 16.9723C6.76987 16.7144 6.625 16.3647 6.625 16V4C6.625 3.63533 6.76987 3.28559 7.02773 3.02773C7.28559 2.76987 7.63533 2.625 8 2.625Z" stroke="black" stroke-width="1.25"/>
</svg>
