<svg width="46" height="46" viewBox="0 0 46 46" fill="none" xmlns="http://www.w3.org/2000/svg">
<path d="M39.8629 7.96054L40.1159 8.19514L40.3505 8.44814C41.0688 9.29533 41.4431 10.3813 41.3992 11.4912C41.3554 12.6011 40.8966 13.6541 40.1136 14.4419L31.8267 22.761C31.3182 23.2724 30.6907 23.6494 30.0005 23.8581L25.4925 25.2174C25.2487 25.2902 24.993 25.3142 24.74 25.288C24.487 25.2619 24.2416 25.186 24.0179 25.0649C23.7942 24.9438 23.5966 24.7797 23.4364 24.5821C23.2762 24.3845 23.1566 24.1572 23.0844 23.9133C22.9715 23.5354 22.9755 23.1321 23.0959 22.7564L24.5242 18.2898C24.7381 17.6251 25.1038 17.0248 25.5937 16.5303L33.9013 8.19284C34.6819 7.40819 35.7308 6.94827 36.8368 6.9056C37.9429 6.86293 39.024 7.23837 39.8629 7.96054ZM29.6509 9.20024H10.3516C8.82657 9.20024 7.36403 9.80604 6.2857 10.8844C5.20736 11.9627 4.60156 13.4252 4.60156 14.9502V20.1574C5.85099 18.9939 7.17226 17.91 8.55756 16.9121C10.0457 15.8587 11.6442 14.9341 13.1093 14.5523C13.8499 14.3568 14.6319 14.2809 15.3794 14.4557C16.1614 14.6397 16.8353 15.0813 17.3252 15.7943C18.3901 17.3445 17.615 19.0235 16.879 20.2195C16.4949 20.8451 16.0188 21.4983 15.5542 22.1377L15.5013 22.2067C15.016 22.8783 14.533 23.5453 14.1006 24.233C13.7372 24.8885 13.6406 25.6636 13.8016 26.2225C13.865 26.4593 13.998 26.6716 14.1834 26.832C14.3513 26.9723 14.6204 27.1057 15.0551 27.1448C15.8141 27.2138 16.8008 26.9539 18.0129 26.5192C18.1566 26.4599 18.3109 26.4303 18.4664 26.4323C18.6219 26.4342 18.7754 26.4677 18.9176 26.5307C19.0598 26.5937 19.1877 26.6849 19.2937 26.7987C19.3996 26.9126 19.4814 27.0467 19.534 27.1931C19.5866 27.3394 19.609 27.4949 19.5998 27.6501C19.5906 27.8054 19.55 27.9572 19.4805 28.0963C19.411 28.2354 19.314 28.3589 19.1953 28.4595C19.0767 28.56 18.9389 28.6355 18.7903 28.6812C17.5943 29.1136 16.1683 29.5552 14.8481 29.4356C14.0678 29.3828 13.3227 29.0913 12.7137 28.6007C12.1759 28.1485 11.7865 27.5451 11.5959 26.8688C11.2279 25.613 11.4809 24.1893 12.1111 23.0784L12.1226 23.0577L12.1364 23.0347C12.6194 22.2596 13.1553 21.5236 13.6429 20.8543L13.6659 20.8221C14.1558 20.1528 14.5836 19.564 14.9194 19.0166C15.6692 17.7976 15.6048 17.3514 15.43 17.0961C15.3657 16.9942 15.2817 16.9061 15.183 16.837C15.0843 16.7679 14.9728 16.7191 14.855 16.6936C14.5951 16.6338 14.2156 16.6384 13.6935 16.7764C12.6355 17.0524 11.3061 17.7838 9.88926 18.7889C7.92736 20.1781 5.97696 21.9629 4.60156 23.3544V31.0502C4.60156 32.5752 5.20736 34.0378 6.2857 35.1161C7.36403 36.1944 8.82657 36.8002 10.3516 36.8002H35.6516C37.1766 36.8002 38.6391 36.1944 39.7174 35.1161C40.7958 34.0378 41.4016 32.5752 41.4016 31.0502V16.4084L33.4551 24.3848C32.6777 25.1668 31.7186 25.7418 30.6652 26.0592L26.1572 27.4185C25.6236 27.5791 25.0636 27.6327 24.5093 27.5764C23.955 27.5201 23.4173 27.355 22.9269 27.0905C22.4365 26.8259 22.0032 26.4672 21.6517 26.0349C21.3002 25.6026 21.0375 25.1052 20.8787 24.5711C20.6332 23.749 20.642 22.8719 20.904 22.0549L22.3346 17.5883C22.6566 16.5763 23.2155 15.6586 23.9653 14.9088L29.6509 9.20024Z" fill="#353535"/>
</svg>
