<svg width="46" height="46" viewBox="0 0 46 46" fill="none" xmlns="http://www.w3.org/2000/svg">
<path d="M41.3068 25.1638L40.9411 27.0728C40.603 28.8576 38.9309 30.0582 37.038 29.8742L33.2729 29.5108C31.6307 29.3521 30.414 28.1538 29.8988 26.4518C29.1996 24.1403 28.7488 22.4268 28.7488 22.4268C26.9327 21.6485 24.9745 21.2568 22.9988 21.2768C20.6666 21.2768 19.0014 21.7713 17.2488 22.4268C17.2488 22.4268 16.7796 24.1426 16.0988 26.4518C15.6434 27.9928 14.9396 29.3429 13.3319 29.5039L9.5875 29.8811C8.67569 29.9686 7.76151 29.7398 6.99844 29.2331C6.23538 28.7263 5.66989 27.9725 5.3969 27.0981L4.8265 25.1914C4.5438 24.2798 4.51811 23.3079 4.75226 22.3827C4.98641 21.4574 5.47132 20.6147 6.1536 19.9474C9.4311 16.7642 15.3306 14.9702 22.9804 14.961C30.644 14.9518 35.8466 16.7366 39.453 19.9198C40.971 21.2584 41.6679 23.2732 41.3068 25.1638Z" fill="#FF0000"/>
</svg>
