<svg width="46" height="46" viewBox="0 0 46 46" fill="none" xmlns="http://www.w3.org/2000/svg">
<path d="M23 28.0312C27.2182 28.0312 30.6367 24.6531 30.6367 20.4844V10.4219C30.6367 6.25312 27.2182 2.875 23 2.875C18.7818 2.875 15.3633 6.25312 15.3633 10.4219V20.4844C15.3633 24.6531 18.7818 28.0312 23 28.0312ZM37.8242 20.3945C37.8242 20.1969 37.6625 20.0352 37.4648 20.0352H34.7695C34.5719 20.0352 34.4102 20.1969 34.4102 20.3945C34.4102 26.6971 29.3025 31.8047 23 31.8047C16.6975 31.8047 11.5898 26.6971 11.5898 20.3945C11.5898 20.1969 11.4281 20.0352 11.2305 20.0352H8.53516C8.3375 20.0352 8.17578 20.1969 8.17578 20.3945C8.17578 27.9729 13.8629 34.226 21.2031 35.1109V39.7109H14.676C14.0605 39.7109 13.5664 40.3533 13.5664 41.1484V42.7656C13.5664 42.9633 13.6922 43.125 13.8449 43.125H32.1551C32.3078 43.125 32.4336 42.9633 32.4336 42.7656V41.1484C32.4336 40.3533 31.9395 39.7109 31.324 39.7109H24.6172V35.1334C32.0428 34.3248 37.8242 28.0357 37.8242 20.3945Z" fill="#353535"/>
</svg>
