<svg width="46" height="46" viewBox="0 0 46 46" fill="none" xmlns="http://www.w3.org/2000/svg">
<path d="M21.082 22.6659V28.7513C21.082 29.2944 21.266 29.7499 21.634 30.1179C22.002 30.4859 22.4569 30.6693 22.9987 30.668C23.5418 30.668 23.9973 30.484 24.3653 30.116C24.7333 29.748 24.9166 29.2931 24.9154 28.7513V22.7138L26.6404 24.3909C27.0237 24.7423 27.4709 24.9263 27.982 24.9429C28.4931 24.9595 28.9404 24.7755 29.3237 24.3909C29.707 24.0076 29.8987 23.5527 29.8987 23.0262C29.8987 22.4998 29.707 22.0443 29.3237 21.6596L24.3404 16.6763C23.957 16.293 23.5098 16.1013 22.9987 16.1013C22.4876 16.1013 22.0404 16.293 21.657 16.6763L16.6737 21.6596C16.2904 22.043 16.107 22.4902 16.1236 23.0013C16.1402 23.5124 16.3396 23.9596 16.7216 24.343C17.105 24.6944 17.5522 24.8784 18.0633 24.895C18.5744 24.9116 19.0216 24.7276 19.405 24.343L21.082 22.6659ZM7.66537 38.3346C6.6112 38.3346 5.70845 37.959 4.95712 37.2076C4.20578 36.4563 3.83076 35.5542 3.83203 34.5013V11.5013C3.83203 10.4471 4.2077 9.54439 4.95903 8.79306C5.71037 8.04172 6.61248 7.66669 7.66537 7.66797H38.332C39.3862 7.66797 40.289 8.04364 41.0403 8.79497C41.7916 9.5463 42.1666 10.4484 42.1654 11.5013V34.5013C42.1654 35.5555 41.7897 36.4582 41.0384 37.2096C40.287 37.9609 39.3849 38.3359 38.332 38.3346H7.66537Z" fill="#353535"/>
</svg>
