<svg width="46" height="46" viewBox="0 0 46 46" fill="none" xmlns="http://www.w3.org/2000/svg">
<path d="M30.1875 37.375H5.75C4.9875 37.375 4.25623 37.0721 3.71707 36.5329C3.1779 35.9938 2.875 35.2625 2.875 34.5V11.5C2.875 10.7375 3.1779 10.0062 3.71707 9.46707C4.25623 8.9279 4.9875 8.625 5.75 8.625H30.1875C30.95 8.625 31.6813 8.9279 32.2204 9.46707C32.7596 10.0062 33.0625 10.7375 33.0625 11.5V17.3363L40.8537 11.7731C41.0683 11.6204 41.3207 11.5295 41.5834 11.5104C41.8461 11.4913 42.1089 11.5448 42.3433 11.6649C42.5777 11.7851 42.7745 11.9673 42.9124 12.1917C43.0502 12.4162 43.1238 12.6741 43.125 12.9375V33.0625C43.1238 33.3259 43.0502 33.5838 42.9124 33.8083C42.7745 34.0327 42.5777 34.2149 42.3433 34.3351C42.1089 34.4552 41.8461 34.5087 41.5834 34.4896C41.3207 34.4705 41.0683 34.3796 40.8537 34.2269L33.0625 28.6638V34.5C33.0625 35.2625 32.7596 35.9938 32.2204 36.5329C31.6813 37.0721 30.95 37.375 30.1875 37.375Z" fill="#353535"/>
</svg>
